<svg width="92" height="51" viewBox="0 0 92 51" fill="none" xmlns="http://www.w3.org/2000/svg">
<path d="M71.5318 44.3886C66.4232 43.2496 65.0959 39.1864 65.0412 39.0148L61.3948 40.1064C61.4312 40.2341 61.9089 41.7711 63.2508 43.4979C61.4677 48.3642 54.0253 47.0609 53.6899 46.9989L52.9934 50.7445C53.0736 50.7591 54.3645 50.9963 56.1366 50.9963C57.0446 50.9963 58.0765 50.9343 59.134 50.7481C62.4048 50.1713 64.8187 48.5942 66.1789 46.2176C67.3858 47.0171 68.8736 47.6998 70.7004 48.1087L71.5318 44.3886Z" fill="#262424"/>
<path d="M78.2375 0H67.1926C59.4804 0 52.8731 4.80795 50.1893 11.5836H40.8107C38.1269 4.80795 31.5196 0 23.8075 0H12.7625C0 0 0 13.3907 0 18.4323V18.6805C0 23.1344 1.61536 27.4239 4.55073 30.7643C8.02212 34.718 13.0287 36.985 18.3269 36.985C18.3269 36.985 18.3269 36.985 18.3305 36.985L23.833 36.8609C33.9044 36.85 42.0979 28.6396 42.0979 18.5528V18.3045C42.0979 17.3152 42.0177 16.3404 41.8645 15.3913H49.1464C48.9933 16.3404 48.9131 17.3115 48.9131 18.3045V18.5528C48.9131 28.6396 57.1029 36.8463 67.178 36.8609L72.7242 36.985C77.9787 36.985 82.9852 34.718 86.4602 30.7643C89.3956 27.4239 91.0109 23.1307 91.0109 18.6805V18.4323C91 13.3907 91 0 78.2375 0ZM38.2874 18.5564C38.2874 26.5514 31.7931 33.0533 23.8075 33.0533L18.2831 33.1774C14.1226 33.1774 10.1553 31.3812 7.40588 28.249C5.08311 25.6059 3.80321 22.2071 3.80321 18.6805V18.4323C3.80321 8.0461 6.39946 3.81131 12.7588 3.81131H23.8038C31.7895 3.81131 38.2837 10.3132 38.2837 18.3082V18.5564H38.2874ZM87.1968 18.6805C87.1968 22.2071 85.9169 25.6059 83.5941 28.249C80.8447 31.3812 76.8774 33.1774 72.7606 33.1774L67.2363 33.0533H67.1926C59.2069 33.0533 52.7126 26.5514 52.7126 18.5564V18.3082C52.7126 10.3168 59.2069 3.81131 67.1926 3.81131H78.2375C84.6005 3.81131 87.1931 8.0461 87.1931 18.4323V18.6805H87.1968Z" fill="#262424"/>
<path d="M16.3177 16.8844C16.2339 16.9903 16.1901 17.1144 16.1391 17.2349C15.8218 17.976 15.6213 18.7426 15.5447 19.5458C15.4936 20.0751 15.5009 20.6008 15.5593 21.1265C15.6322 21.7544 15.7817 22.3641 16.0114 22.9555C16.099 23.1818 16.1828 23.4155 16.3214 23.6199C16.3323 23.6491 16.3396 23.6783 16.3506 23.7039C16.9121 24.7881 17.6888 25.6898 18.6806 26.3944C19.8548 27.2268 21.1602 27.6941 22.6005 27.7707C24.0883 27.851 25.5031 27.5845 26.8121 26.8508C27.2533 26.6025 27.669 26.3141 28.03 25.9527C28.0592 25.9308 28.092 25.9089 28.1175 25.8833C28.6463 25.3722 29.0802 24.7881 29.4157 24.1347C29.8569 23.2731 30.1121 22.3568 30.2179 21.3966C30.3054 20.5862 30.2762 19.783 30.1522 18.9762C30.134 18.8667 30.0976 18.8302 29.9809 18.8339C27.7128 18.8375 25.4447 18.8375 23.1767 18.8339C23.0673 18.8339 23.0308 18.8521 23.0308 18.9762C23.0381 19.8561 23.0344 20.7395 23.0344 21.6193C23.0344 21.7909 23.0162 21.7763 23.1949 21.7763C24.4529 21.7763 25.7109 21.7763 26.9689 21.7763C26.9981 21.7763 27.0309 21.7763 27.0601 21.7763C27.1184 21.7763 27.1367 21.8019 27.1257 21.8639C26.9944 22.4882 26.7246 23.0431 26.3053 23.5213C26.112 23.7404 25.8859 23.9229 25.6562 24.1018C25.638 24.1091 25.6198 24.1164 25.6052 24.1274C24.6498 24.7443 23.5923 24.9488 22.4802 24.8027C21.0216 24.6092 19.9277 23.828 19.1656 22.5758C19.0015 22.3057 18.8848 22.0173 18.7718 21.7252C18.7645 21.6923 18.7572 21.6595 18.7499 21.6266C18.5238 20.8965 18.4764 20.1554 18.6186 19.4034C18.6587 19.1916 18.728 18.9872 18.7718 18.7791C18.7827 18.7572 18.7973 18.7316 18.8046 18.7097C19.4828 16.815 21.3389 15.4898 23.4428 15.6797C24.369 15.7636 25.1822 16.1068 25.8714 16.7311C25.9297 16.7858 25.9625 16.7931 26.0245 16.7311C26.6809 16.0703 27.3372 15.4132 27.9972 14.7561C28.0592 14.694 28.0592 14.6648 27.9936 14.6064C27.4612 14.1281 26.8778 13.7266 26.2323 13.4199C25.3536 13.0037 24.4274 12.7774 23.4574 12.7263C22.4218 12.6715 21.4118 12.8102 20.4418 13.1717C18.8885 13.7485 17.6523 14.7415 16.7334 16.1214C16.5839 16.366 16.4271 16.6143 16.3177 16.8844Z" fill="#262424"/>
<path d="M62.0183 16.8844C60.9462 18.9397 60.928 21.5719 62.0183 23.6236C63.9983 27.9423 70.2555 29.22 73.7306 25.9563C75.6486 24.2405 76.2502 21.4551 75.8528 18.9799C75.8346 18.8704 75.7981 18.8339 75.6814 18.8375C73.4133 18.8412 71.1453 18.8412 68.8772 18.8375C68.7678 18.8375 68.7313 18.8558 68.7313 18.9799C68.7386 19.8597 68.735 20.7432 68.735 21.623C68.735 21.7946 68.7168 21.78 68.8954 21.78C70.1534 21.78 71.4114 21.78 72.6695 21.78C72.7387 21.7836 72.8554 21.7544 72.8263 21.8676C72.6512 22.7802 72.1079 23.5688 71.3568 24.1054C68.8699 25.7519 65.4094 24.5654 64.4723 21.7289C64.1624 20.7614 64.1697 19.7502 64.4723 18.7828C65.1506 16.8625 67.0029 15.4862 69.1434 15.6833C70.0696 15.7673 70.8827 16.1105 71.5719 16.7347C71.6302 16.7895 71.6631 16.7968 71.725 16.7347C72.3814 16.0739 73.0378 15.4168 73.6978 14.7597C73.7597 14.6976 73.7597 14.6684 73.6941 14.61C72.4543 13.4747 70.8353 12.8066 69.158 12.7299C66.2262 12.5364 63.2945 14.2158 62.0183 16.8844Z" fill="#262424"/>
</svg>
